<svg id="Raggruppa_9" data-name="Raggruppa 9" xmlns="http://www.w3.org/2000/svg" xmlns:xlink="http://www.w3.org/1999/xlink" width="188.597" height="152.127" viewBox="0 0 188.597 152.127">
  <defs>
    <style>
      .cls-1, .cls-10 {
        fill: #0063e6;
      }

      .cls-1, .cls-17, .cls-3, .cls-4, .cls-7 {
        opacity: 0.1;
      }

      .cls-2 {
        fill: #a8a8a8;
      }

      .cls-11, .cls-3 {
        fill: #fff;
      }

      .cls-5 {
        fill: #464353;
      }

      .cls-6 {
        fill: url(#linear-gradient);
      }

      .cls-8 {
        opacity: 0.06;
      }

      .cls-9 {
        fill: #fbbebe;
      }

      .cls-12 {
        fill: #fed253;
      }

      .cls-13 {
        fill: url(#linear-gradient-2);
      }

      .cls-14 {
        fill: #d6d8e1;
      }

      .cls-15 {
        fill: #f86d70;
      }

      .cls-16 {
        fill: #444176;
      }

      .cls-17 {
        fill: none;
        stroke: #000;
        stroke-miterlimit: 10;
      }

      .cls-18 {
        opacity: 0.05;
      }

      .cls-19 {
        opacity: 0.2;
      }
    </style>
    <linearGradient id="linear-gradient" y1="0.5" x2="1" y2="0.5" gradientUnits="objectBoundingBox">
      <stop offset="0" stop-color="gray" stop-opacity="0.251"/>
      <stop offset="0.54" stop-color="gray" stop-opacity="0.122"/>
      <stop offset="1" stop-color="gray" stop-opacity="0.102"/>
    </linearGradient>
    <linearGradient id="linear-gradient-2" x1="12.106" y1="0.5" x2="13.106" y2="0.5" xlink:href="#linear-gradient"/>
  </defs>
  <ellipse id="Ellisse_78" data-name="Ellisse 78" class="cls-1" cx="85.228" cy="76.064" rx="85.228" ry="76.064" transform="translate(11.786 0)"/>
  <ellipse id="Ellisse_79" data-name="Ellisse 79" class="cls-1" cx="31.425" cy="4.871" rx="31.425" ry="4.871" transform="translate(0 110.102)"/>
  <ellipse id="Ellisse_80" data-name="Ellisse 80" class="cls-1" cx="12.223" cy="2.525" rx="12.223" ry="2.525" transform="translate(34.307 137.999)"/>
  <ellipse id="Ellisse_81" data-name="Ellisse 81" class="cls-1" cx="12.223" cy="2.525" rx="12.223" ry="2.525" transform="translate(117.826 128.284)"/>
  <ellipse id="Ellisse_82" data-name="Ellisse 82" class="cls-1" cx="19.876" cy="3.367" rx="19.876" ry="3.367" transform="translate(68.697 124.481)"/>
  <ellipse id="Ellisse_83" data-name="Ellisse 83" class="cls-1" cx="41.458" cy="6.493" rx="41.458" ry="6.493" transform="translate(105.682 104.686)"/>
  <path id="Tracciato_199" data-name="Tracciato 199" class="cls-2" d="M125.2,496.994a11.536,11.536,0,0,0,.6,11.582,2.865,2.865,0,0,0,.97,1.047c1.288.506,3.868,1.75,3.868,1.75l6.212-2.441s1.009-5.335,1.962-9.915h0a55.385,55.385,0,0,1,1.537-6.382c.643-1.2,0-14.225,0-14.225s-6.212-.417-7.92,4.372l-.747,1.462Z" transform="translate(-116.609 -397.147)"/>
  <path id="Tracciato_200" data-name="Tracciato 200" class="cls-3" d="M166.521,498.442c3.777,4.328,5.37.585,5.37.585h0a55.39,55.39,0,0,1,1.537-6.382c.643-1.2,0-14.225,0-14.225s-6.212-.417-7.92,4.372l-.747,1.462C164.281,488.084,163.808,495.327,166.521,498.442Z" transform="translate(-149.681 -397.156)"/>
  <path id="Tracciato_201" data-name="Tracciato 201" class="cls-2" d="M180.59,444.416l21.925-2.532,3.912-25.739-2.958-6.685a27.088,27.088,0,0,0-5.116-7.717,15.692,15.692,0,0,0-5.182-3.837,7.775,7.775,0,0,0-.791-.27,2.048,2.048,0,0,0-1.827.323c-2.7,1.917-3.671,10.065-3.983,13.988a43.773,43.773,0,0,1-.652,4.8Z" transform="translate(-162.921 -331.066)"/>
  <path id="Tracciato_202" data-name="Tracciato 202" class="cls-3" d="M239.7,415.858l-4.568,11.236c2.393-1.75,5.94-11.282,5.94-11.282l3.177,10.867-2.532-11.454a35.823,35.823,0,0,0,.322-7.517c-.2-2.876-2.9-7.491-4.365-9.815a7.775,7.775,0,0,0-.791-.27,2.048,2.048,0,0,0-1.827.323c1.151,2.311,4.029,8.09,4.906,9.808C241.078,409.919,239.7,415.858,239.7,415.858Z" transform="translate(-207.439 -331.058)"/>
  <path id="Tracciato_203" data-name="Tracciato 203" class="cls-2" d="M280.89,524.383h11.9a3.608,3.608,0,0,0,3.6-3.791c-.263-5.1-.93-14.2-2.516-19.97-.857-3.115-1.853-4.75-2.766-5.556a2.7,2.7,0,0,0-1.573-.74,2.065,2.065,0,0,0-1.279.311c-2.209,2.118-4.789,13.261-4.789,13.261Z" transform="translate(-244.895 -410.157)"/>
  <path id="Tracciato_204" data-name="Tracciato 204" class="cls-3" d="M300.814,584.037a5.84,5.84,0,0,1,0,4.449l-2.651,1.31s-7.125-3.02-6.259-9.21c0,0,.234-1.279,2.688-1.18A6.956,6.956,0,0,1,300.814,584.037Z" transform="translate(-253.837 -479.694)"/>
  <path id="Tracciato_205" data-name="Tracciato 205" class="cls-3" d="M310.47,498.263c-.082-2.171,1.1-2.923,2.07-3.163a2.7,2.7,0,0,0-1.573-.74,4.177,4.177,0,0,0-1.372,2.192l-2.485,12.112S310.609,501.9,310.47,498.263Z" transform="translate(-266.325 -410.191)"/>
  <path id="Tracciato_206" data-name="Tracciato 206" class="cls-2" d="M179.546,568.14l5.89,8.057,1.021,6.65-3.786,1.869-5.457,1.206a5.245,5.245,0,0,1-1.6.1l-14.892-1.31,2.026-4.7,7-9.824Z" transform="translate(-146.681 -470.492)"/>
  <path id="Tracciato_207" data-name="Tracciato 207" class="cls-3" d="M186.3,552.986s4.02.276,2.51,7.182-17.037,7.46-17.037,7.46a40.8,40.8,0,0,1,8.375-10.036c.57-.47,1.12-.959,1.644-1.482C182.957,554.943,185.19,552.891,186.3,552.986Z" transform="translate(-155.712 -458.103)"/>
  <path id="Tracciato_208" data-name="Tracciato 208" class="cls-4" d="M271.07,581.5A16.737,16.737,0,0,1,276,594.085" transform="translate(-236.869 -481.411)"/>
  <path id="Tracciato_209" data-name="Tracciato 209" class="cls-4" d="M292.786,496.06a38.053,38.053,0,0,0-6.356,19.3" transform="translate(-249.423 -411.581)"/>
  <path id="Tracciato_210" data-name="Tracciato 210" class="cls-4" d="M195.34,478.43s2.766,12.561-4.14,22.029" transform="translate(-171.592 -397.172)"/>
  <path id="Tracciato_211" data-name="Tracciato 211" class="cls-5" d="M482.147,594.311h29.806a1.67,1.67,0,0,0,1.462-2.461l-14.9-27.676a1.668,1.668,0,0,0-2.938,0l-14.9,27.676a1.67,1.67,0,0,0,1.469,2.461Zm16.8-5.057h-3.793v-3.791h3.793Zm0-6.32h-3.793V575.35h3.793Z" transform="translate(-408.019 -466.533)"/>
  <path id="Tracciato_212" data-name="Tracciato 212" class="cls-4" d="M482.147,594.311h29.806a1.67,1.67,0,0,0,1.462-2.461l-14.9-27.676a1.668,1.668,0,0,0-2.938,0l-14.9,27.676a1.67,1.67,0,0,0,1.469,2.461Zm16.8-5.057h-3.793v-3.791h3.793Zm0-6.32h-3.793V575.35h3.793Z" transform="translate(-408.019 -466.533)"/>
  <path id="Tracciato_213" data-name="Tracciato 213" class="cls-5" d="M482.148,599.311h29.806a1.67,1.67,0,0,0,1.462-2.461l-14.9-27.676a1.668,1.668,0,0,0-2.938,0l-14.9,27.676a1.67,1.67,0,0,0,1.469,2.461Zm16.8-5.057h-3.793v-3.791h3.793Zm0-6.32h-3.793V580.35h3.793Z" transform="translate(-408.019 -470.619)"/>
  <path id="Tracciato_214" data-name="Tracciato 214" class="cls-6" d="M144.132,307.988a2.047,2.047,0,0,0-.422-.2c-.49-.183-1.012-.23-1.5-.406a2.151,2.151,0,0,1-.755-.446c-.037-.037-.071-.073-.1-.111.183-.115.349-.23.53-.338a6.278,6.278,0,0,0-2.2-2.192c.294-.433.957-.4,1.345-.747a1.279,1.279,0,0,0,.365-.718,4.963,4.963,0,0,0-.214-2.169,26.73,26.73,0,0,0-1.261-4.083,16.093,16.093,0,0,1-.683-1.655c-.473-1.575-.143-3.289-.5-4.9a3.436,3.436,0,0,1-.172-1.562c.2-.793,1.085-1.262,1.279-2.055a82.216,82.216,0,0,0,1.226-8.633,11.112,11.112,0,0,0,.148-1.657c0-.583-.1-1.16-.146-1.741a31.678,31.678,0,0,1,.354-4.891,5.115,5.115,0,0,1,.663,1.635,6.6,6.6,0,0,1,.038,1.622,7.622,7.622,0,0,1-.115,1.08c-.09.424-.247.829-.351,1.253a3.875,3.875,0,0,0,.174,2.514c.248.548.795,1.056,1.363.892a1.472,1.472,0,0,0,.806-.875,5.34,5.34,0,0,0,.484-3.744,11.244,11.244,0,0,1-.826-2.424,6.265,6.265,0,0,1,.08-1.025c.228-1.984-.265-3.977-.375-5.973a11.651,11.651,0,0,0-.1-1.745c-.015-.068-.031-.135-.051-.2a.427.427,0,0,1,.132.06,1.191,1.191,0,0,0-.026-1.021,2.6,2.6,0,0,1-.172-.322c-.069-.183-.057-.395-.143-.57a2.43,2.43,0,0,0-.183-.265,2.127,2.127,0,0,1-.254-1.2q-.042-3.245-.183-6.482a10.616,10.616,0,0,0-.5-3.247,4.867,4.867,0,0,0-1.717-2.278,4,4,0,0,0-.385-.241,1.338,1.338,0,0,0,.11-.493,1.178,1.178,0,0,0,0-.161l-.011-.091h0a3.855,3.855,0,0,0-.365-1.1,3.081,3.081,0,0,1-.349-1.2,1.861,1.861,0,0,1,.013-.227h0c.062-.526.336-1.019.433-1.546a2.651,2.651,0,0,0,.04-.5c0-.057,0-.115,0-.174a4.98,4.98,0,0,0-.586-1.845c-.091-.183-.183-.365-.285-.548-.048-.342-.1-.683-.153-1.023-.029-.2-.06-.395-.1-.59q-.031-.146-.071-.285c.283-.267.119-.658-.062-1.019a8.445,8.445,0,0,1-.424-2.264,6.84,6.84,0,0,0-.537-1.52,3.387,3.387,0,0,0-.583-.957,3.573,3.573,0,0,0-.755-.548,2.4,2.4,0,0,0-.749-.338c-.166-.033-.336-.031-.5-.069a1.586,1.586,0,0,1-.307-.111,2.089,2.089,0,0,0-.656-.239,1.462,1.462,0,0,0-.632.121,2.326,2.326,0,0,1-.68.183h-.258a.572.572,0,0,0-.349.084,1.319,1.319,0,0,0-.15.153,2.023,2.023,0,0,1-.44.3,4.339,4.339,0,0,0-2.13,3.709,1.838,1.838,0,0,1-.053.6c-.053.153-.157.287-.2.444a1.246,1.246,0,0,0-.02.417c.015.214.037.426.06.639h0a1.345,1.345,0,0,0-.267.59h0a.805.805,0,0,0-.016.113v.015h0a3.309,3.309,0,0,0,.278,1.1,3.9,3.9,0,0,1-.055,2.15,8.469,8.469,0,0,0-.365,1.462h0v.033a1.766,1.766,0,0,0,.084.731c.06.166.15.322.2.49a2.018,2.018,0,0,1-.46,1.743h0c-.058.082-.119.161-.183.238h.009l-.009.009.38.269c-.111.058-.223.122-.336.183a3.457,3.457,0,0,0-1.239.459,5.036,5.036,0,0,0-1,.669,4.262,4.262,0,0,0-.793,1.1,13.779,13.779,0,0,0-.672,1.418,4.44,4.44,0,0,0-.343,1.23c-.157.334-.287.694-.431,1.018-.073.166-.144.333-.216.5l-6.289-15.4-.976.406.077.183-.2.086.276.672c-.04.027-.08.055-.119.084l-.051.04-.1.08-.051.042-.1.088-.038.033-.13.119h0c-.139.126-.272.259-.4.393l-.334.345-.064.068-.111.113-.062.064-.159.159-.011.011-.1.1-.062.058c-.026.026-.053.049-.08.073l-.077.071-.124.106-.037.033-.17.135a4.763,4.763,0,0,1-.731.47c-1,.517-2.057.95-3.033,1.5a8.732,8.732,0,0,0-1.5,1.052,11.931,11.931,0,0,1-1.938,1.694l-.082.044c-1.323.68-2.881.272-4.385.243-.225,0-.446,0-.665.015a8.4,8.4,0,0,0-3.417,1.193c-.76.426-1.5.9-2.247,1.337-.471.272-.945.568-1.42.872a32.084,32.084,0,0,1-3.689,2.149,7.753,7.753,0,0,1-3.654.813H87.31a3.045,3.045,0,0,1-.365-.031c-.119.959.649,1.732,1.16,2.576a2.611,2.611,0,0,1,.433,1.22,2.193,2.193,0,0,1-.037.49,6.152,6.152,0,0,0-.3,1.769,2.048,2.048,0,0,0,.389.961c.325.464.776.877,1.083,1.361a7.334,7.334,0,0,1,.766,2.481,5.22,5.22,0,0,0,.6,1.719A7.345,7.345,0,0,0,92.6,265.92c.1.09.206.183.305.274.073.066.144.135.212.206a2.438,2.438,0,0,1,.756,2.571c-.013.029-.027.055-.042.082a.732.732,0,0,0,.1.06c.51.248,1.149-.15,1.568-.572.206-.206.4-.426.592-.649.51-.566.977-1.18,1.462-1.769.132-.159.263-.314.4-.468A6.76,6.76,0,0,1,99.76,264.2a6.63,6.63,0,0,1,1.107-.449c.566-.183,1.151-.318,1.719-.5a14.124,14.124,0,0,0,2.264-.95,34.813,34.813,0,0,0,3.654-2.266l.183-.119a6.262,6.262,0,0,0,1.087-.868c.058-.064.115-.13.168-.2.285-.365.47-.8.731-1.178a3.792,3.792,0,0,1,1.025-.988,15.1,15.1,0,0,1,3.963-1.462h.015a15.4,15.4,0,0,0,6.243-3.707l1,2.452q-.155.435-.294.879a7.145,7.145,0,0,1-.842,2.1,1.568,1.568,0,0,0-.318.565,1.827,1.827,0,0,1-.075.453c-.062.124-.192.206-.245.334-.077.183.024.418-.079.59a.928.928,0,0,1-.174.183,1.213,1.213,0,0,0-.331.93,3.258,3.258,0,0,1-.082,1.009,2.409,2.409,0,0,1,.236-.122,1.1,1.1,0,0,0-.02.183,2.036,2.036,0,0,0,.064.513,4.054,4.054,0,0,0,.534,1.067,7.584,7.584,0,0,0,.572.822,7.491,7.491,0,0,0,1.21,1.082l1.842,1.421-.183.769a21.5,21.5,0,0,0-.828,4.906,21.137,21.137,0,0,0,.148,2.355l.159,1.6c.128,1.292.256,2.583.4,3.875a9.924,9.924,0,0,0,.471,2.415c.435,1.171-.046,2.494.139,3.733a6.6,6.6,0,0,1,.144,2.91c-.117.365-.322.716-.471,1.078a8.089,8.089,0,0,0-.444,2.872,12.206,12.206,0,0,0,.093,2.558,10.523,10.523,0,0,1,.437,2.616c-.1,1.259-1.016,2.335-1.127,3.594a5.3,5.3,0,0,0,.817,2.863c.345.656-.137,1.5-.32,2.225a5.658,5.658,0,0,0,.981,4.151.2.2,0,0,0,.093.1c.084.031.163-.053.217-.124a1.494,1.494,0,0,1,.11-.13c0,.057.011.113.015.168,0,.119.009.238.009.365a3.672,3.672,0,0,0,.248,1.352,2.389,2.389,0,0,0,.1.245,1.129,1.129,0,0,0,.183.294,1.116,1.116,0,0,0,.731.307,9.465,9.465,0,0,0,1.827-.113c.643-.055,1.288-.031,1.933-.046a.279.279,0,0,0,.144-.031.247.247,0,0,0,.082-.132,1.462,1.462,0,0,0,.031-.72,5.1,5.1,0,0,0-.137-.572c-.086-.3-.164-.6-.239-.914-.015-.057-.027-.113-.04-.17l.029.013q.59-1.326,1.182-2.653a2.389,2.389,0,0,0,.3-1.412,4.152,4.152,0,0,0-.446-.948,5.566,5.566,0,0,1-.385-2.437l-.022-4.7a10.294,10.294,0,0,0,1.827-3.988,12.9,12.9,0,0,1,.108,6.212,5.787,5.787,0,0,0-.174.946c-.071,1.3.943,2.406,1.213,3.681a.829.829,0,0,1,.02.3,1.123,1.123,0,0,1-.15.347,5.416,5.416,0,0,0-.365,2.976l.214.035a.566.566,0,0,0,.227.223h0a1.119,1.119,0,0,0,.283.117,6.983,6.983,0,0,0,1.065.163c.515.051,1.032.1,1.549.135.2.013.409.024.614.029a6.133,6.133,0,0,1,.86.06,6.214,6.214,0,0,1,.912.265,5.836,5.836,0,0,0,4.113.144,1.853,1.853,0,0,0,.751-.532.884.884,0,0,0-.221-1.374ZM126.46,255.9c.194.386.387.769.548,1.169a4.032,4.032,0,0,1,.307,2.452c-.058.238-.44.42-.438.665a.546.546,0,0,0-.029.057l-1.193-2.923a10.428,10.428,0,0,1,.806-1.42Zm-1.31,6.212A5.056,5.056,0,0,1,124.5,261c-.022-.049-.046-.1-.068-.146a.438.438,0,0,0,.174-.13c.183-.23.084-.566.111-.862a1.864,1.864,0,0,1,.29-.731l1.12,2.741q-.17.446-.318.9A6.393,6.393,0,0,1,125.15,262.116Z" transform="translate(-86.375 -194.201)"/>
  <path id="Tracciato_215" data-name="Tracciato 215" class="cls-5" d="M315.426,259.045a3.272,3.272,0,0,0,.281,1.1,3.879,3.879,0,0,1-.053,2.145,3.709,3.709,0,0,0-.287,2.218c.06.168.152.322.206.49a2.247,2.247,0,0,1-.654,1.993l1.807,1.266a2.077,2.077,0,0,0,.914.437.715.715,0,0,0,.8-.473c.024-.113,0-.232.022-.347a.943.943,0,0,1,.506-.7,1.656,1.656,0,0,1,.875-.163,8.867,8.867,0,0,1,3.06,1.257,12.308,12.308,0,0,0,2.059.683,1.654,1.654,0,0,0,1.206,0,1.143,1.143,0,0,0,.5-1.08,3.532,3.532,0,0,0-.384-1.189,3.025,3.025,0,0,1-.353-1.2,9.962,9.962,0,0,1,.449-1.776,4.049,4.049,0,0,0-.559-2.507,10.62,10.62,0,0,1-1.065-2.375,3.47,3.47,0,0,0-.2-.751,1.709,1.709,0,0,0-.365-.49,4.09,4.09,0,0,0-2.591-1.058,11.74,11.74,0,0,0-2.841.248,5.94,5.94,0,0,0-1.054.25,6.7,6.7,0,0,0-1.387.751A1.806,1.806,0,0,0,315.426,259.045Z" transform="translate(-272.708 -215.795)"/>
  <g id="Raggruppa_6" data-name="Raggruppa 6" class="cls-7" transform="translate(42.207 43.129)">
    <path id="Tracciato_216" data-name="Tracciato 216" d="M375.169,294.351a.8.8,0,0,0,.011.163c.057-.535.338-1.038.439-1.573a2.6,2.6,0,0,0,.035-.65,1.789,1.789,0,0,1-.035.285A9.239,9.239,0,0,0,375.169,294.351Z" transform="translate(-364.156 -288.17)"/>
    <path id="Tracciato_217" data-name="Tracciato 217" d="M318.087,271.688a3.272,3.272,0,0,0-.122-1.1,6.356,6.356,0,0,1-.265-.851c0,.038-.015.075-.016.113a3.271,3.271,0,0,0,.281,1.1,3.086,3.086,0,0,1,.122.738Z" transform="translate(-317.172 -269.74)"/>
    <path id="Tracciato_218" data-name="Tracciato 218" d="M326.629,313.026a1.045,1.045,0,0,1-.49.806,1.654,1.654,0,0,1-1.206,0,12.153,12.153,0,0,1-2.059-.685,8.9,8.9,0,0,0-3.06-1.255,1.655,1.655,0,0,0-.875.163.943.943,0,0,0-.506.7c-.013.115,0,.234-.022.347a.716.716,0,0,1-.8.473,2.077,2.077,0,0,1-.914-.437L315.073,312c-.06.082-.121.163-.183.237L316.7,313.5a2.077,2.077,0,0,0,.914.437.715.715,0,0,0,.8-.473c.024-.113,0-.232.022-.347a.943.943,0,0,1,.506-.7,1.655,1.655,0,0,1,.875-.163,8.9,8.9,0,0,1,3.06,1.255,12.156,12.156,0,0,0,2.059.685,1.654,1.654,0,0,0,1.206,0,1.143,1.143,0,0,0,.5-1.08C326.638,313.086,326.632,313.057,326.629,313.026Z" transform="translate(-314.89 -304.185)"/>
    <path id="Tracciato_219" data-name="Tracciato 219" d="M317.156,297.393a1.415,1.415,0,0,1,.049.225,1.324,1.324,0,0,0-.049-.59c-.055-.168-.146-.322-.206-.49a1.528,1.528,0,0,1-.084-.378,1.718,1.718,0,0,0,.084.744C317.01,297.072,317.1,297.227,317.156,297.393Z" transform="translate(-316.497 -291.333)"/>
  </g>
  <path id="Tracciato_220" data-name="Tracciato 220" class="cls-5" d="M306.192,665.634a.239.239,0,0,1-.084.132.279.279,0,0,1-.144.031c-.65.015-1.3,0-1.949.046a9.318,9.318,0,0,1-1.842.113.944.944,0,0,1-.914-.6,2.384,2.384,0,0,1-.1-.245,3.637,3.637,0,0,1-.25-1.352v-.365a2.769,2.769,0,0,0-.053-.4.6.6,0,0,1,.018-.462,1.616,1.616,0,0,1,1.368-.6,11.3,11.3,0,0,1,3.334.245c.086.42.183.837.285,1.253q.113.459.241.914a5.121,5.121,0,0,1,.139.572A1.461,1.461,0,0,1,306.192,665.634Z" transform="translate(-261.181 -547.117)"/>
  <path id="Tracciato_221" data-name="Tracciato 221" class="cls-8" d="M307.715,679.136a.239.239,0,0,1-.084.132.279.279,0,0,1-.144.031c-.65.015-1.3,0-1.949.046a9.318,9.318,0,0,1-1.842.113.944.944,0,0,1-.914-.6,2.391,2.391,0,0,1-.1-.245h.234c.769,0,1.54-.027,2.309-.027a5.9,5.9,0,0,0,.7-.038c.23-.027.418-.066.629-.091a8.61,8.61,0,0,1,.946-.038h.259A1.462,1.462,0,0,1,307.715,679.136Z" transform="translate(-262.704 -560.619)"/>
  <path id="Tracciato_222" data-name="Tracciato 222" class="cls-5" d="M356.936,650.818a1.869,1.869,0,0,1-.756.532,5.973,5.973,0,0,1-4.147-.144,6.316,6.316,0,0,0-.923-.265,6.2,6.2,0,0,0-.864-.06c-.206,0-.413-.016-.619-.029-.523-.033-1.043-.084-1.562-.135a7.062,7.062,0,0,1-1.074-.163,1.144,1.144,0,0,1-.287-.117h0a.44.44,0,0,1-.263-.393c.015-.232.256-.365.468-.466a22.847,22.847,0,0,1,5.951-1.449,2.383,2.383,0,0,0,.6-.183c.228-.091.252.058.365.227a1.407,1.407,0,0,0,.183.216,2.174,2.174,0,0,0,.76.446c.493.183,1.021.232,1.515.406a2.079,2.079,0,0,1,.426.2.881.881,0,0,1,.223,1.374Z" transform="translate(-298.469 -535.694)"/>
  <path id="Tracciato_223" data-name="Tracciato 223" class="cls-8" d="M371.19,657.644a1.869,1.869,0,0,1-.756.532,5.973,5.973,0,0,1-4.147-.144,6.324,6.324,0,0,0-.923-.265,6.212,6.212,0,0,0-.864-.06c-.206,0-.413-.016-.619-.029.168-.159.34-.314.515-.464a1.535,1.535,0,0,1,.433-.285,1.253,1.253,0,0,1,.616-.042c1.045.144,1.984.877,3.038.813a3.738,3.738,0,0,0,1.4-.451,2.439,2.439,0,0,0,.914-.65,1.055,1.055,0,0,0,.17-.327.881.881,0,0,1,.223,1.374Z" transform="translate(-312.723 -542.52)"/>
  <path id="Tracciato_224" data-name="Tracciato 224" class="cls-9" d="M382.91,420.224a1.513,1.513,0,0,1-.811.875c-.574.164-1.125-.351-1.376-.892a3.851,3.851,0,0,1-.183-2.514c.1-.422.263-.828.353-1.252a7.616,7.616,0,0,0,.117-1.08,6.6,6.6,0,0,0-.038-1.622c-.294-1.569-1.644-2.741-2.094-4.283a7.993,7.993,0,0,1-.2-2.39,2.455,2.455,0,0,1,.062-.6.938.938,0,0,1,.055-.157c.3-.669,1.195-.76,1.816-1.149.343-.214,1.124-.9,1.412-.274a2.068,2.068,0,0,1,.139.437,11.612,11.612,0,0,1,.1,1.743c.111,2,.608,3.987.378,5.971a6.227,6.227,0,0,0-.08,1.023,11.075,11.075,0,0,0,.833,2.424A5.234,5.234,0,0,1,382.91,420.224Z" transform="translate(-324.81 -336.852)"/>
  <path id="Tracciato_225" data-name="Tracciato 225" class="cls-4" d="M382.512,405.308a.616.616,0,0,0-.42,0l-1.237.365a7.657,7.657,0,0,0-1.262.459,2.959,2.959,0,0,0-.5.312.941.941,0,0,1,.055-.157c.3-.669,1.195-.76,1.816-1.149.344-.214,1.124-.9,1.412-.274A2.065,2.065,0,0,1,382.512,405.308Z" transform="translate(-325.154 -336.836)"/>
  <path id="Tracciato_226" data-name="Tracciato 226" class="cls-5" d="M371.641,335.568a.559.559,0,0,0-.5-.04l-1.237.365a7.659,7.659,0,0,0-1.262.459,2.9,2.9,0,0,0-.6.391,8.12,8.12,0,0,1-.837-3.344c-.058-.671-.1-1.343-.128-2.01a9.015,9.015,0,0,1,.029-1.44c.069-.548.228-1.083.327-1.628a7.424,7.424,0,0,0,.113-.965,9.431,9.431,0,0,0-.1-2.118,13.124,13.124,0,0,0-.508-2.192c-.117-.327-.258-.643-.385-.965l-.044-.113a13.317,13.317,0,0,1-.565-1.811c-.058-.252-.062-.517-.256-.689a3.437,3.437,0,0,1,.548-.022h.11a4.1,4.1,0,0,1,2.09.731,4.884,4.884,0,0,1,1.732,2.291,10.544,10.544,0,0,1,.5,3.245q.148,3.238.183,6.479a2.069,2.069,0,0,0,.256,1.2,2.45,2.45,0,0,1,.183.265c.086.183.073.385.143.57a2.883,2.883,0,0,0,.174.322A1.178,1.178,0,0,1,371.641,335.568Z" transform="translate(-314.202 -267.234)"/>
  <path id="Tracciato_227" data-name="Tracciato 227" class="cls-9" d="M329.248,289.493c-.183-.06-.365-.124-.548-.183l.38.029a.767.767,0,0,1,.168.153Z" transform="translate(-283.97 -242.605)"/>
  <path id="Tracciato_228" data-name="Tracciato 228" class="cls-9" d="M332.674,296.92c-.037.124-.073.248-.113.365a6.985,6.985,0,0,1-.338.879,4.089,4.089,0,0,1-.864,1.253,1.148,1.148,0,0,1-.431.285,1.371,1.371,0,0,1-.424.04q-.731,0-1.462-.022a5.193,5.193,0,0,1-1.129-.111,4.031,4.031,0,0,1-1.151-.519,6.833,6.833,0,0,1-2.967-3.654.605.605,0,0,1,.031-.577.707.707,0,0,1,.466-.159h.022a2.944,2.944,0,0,0,1.113-.382,1.144,1.144,0,0,0,.508-.519,1.4,1.4,0,0,0-.016-.808l-.406-1.842a1.908,1.908,0,0,0-.323-.82c.119.042.238.08.365.113,1.129.305,2.364.121,3.471.521a1.479,1.479,0,0,1,.976.87c.214.731-.5,1.489-.3,2.22.137.5.643.784,1.1,1.016l.305.155.846.429.117.058.018.009a1.147,1.147,0,0,1,.641.59A1.1,1.1,0,0,1,332.674,296.92Z" transform="translate(-279.914 -243.439)"/>
  <path id="Tracciato_229" data-name="Tracciato 229" class="cls-4" d="M334.9,319.832a3.945,3.945,0,0,1-.336,1.352,5.523,5.523,0,0,0-.576,2.375c-.141,2.467-1.078,5.4.265,7.474.033.051.066.1.1.155a2.9,2.9,0,0,0-.6.391,8.12,8.12,0,0,1-.837-3.343c-.058-.671-.1-1.343-.128-2.01a9.015,9.015,0,0,1,.029-1.44c.069-.548.228-1.083.327-1.628a7.434,7.434,0,0,0,.113-.965,9.433,9.433,0,0,0-.1-2.118,13.122,13.122,0,0,0-.508-2.192c-.117-.327-.258-.643-.385-.965l-.044-.113a4.089,4.089,0,0,1-.864,1.253,1.147,1.147,0,0,1-.431.285,1.371,1.371,0,0,1-.424.04q-.731,0-1.462-.022a5.194,5.194,0,0,1-1.129-.111,4.032,4.032,0,0,1-1.151-.519,6.833,6.833,0,0,1-2.967-3.654.605.605,0,0,1,.031-.577.707.707,0,0,1,.466-.159h.022l1.644,2.033a3.289,3.289,0,0,1,.475.711.424.424,0,0,0,.146.217.374.374,0,0,0,.183.033h5.145a1.336,1.336,0,0,0-.227-.769c-.048.011-.111.015-.013-.015a5.177,5.177,0,0,0-.566-1.694,1.176,1.176,0,0,0-.057-.106,1.947,1.947,0,0,1-.27-.592.75.75,0,0,1,1.04.565c.084.183.168.378.243.57,0,.02.018.042.026.062a4.137,4.137,0,0,1,.3,1.186c.011.15.048.34.172.389a.162.162,0,0,0,.062.015.691.691,0,0,1,.747.183,1.644,1.644,0,0,1,.365.72,3.941,3.941,0,0,0,.259.775c.236.449-.124.65.3.926a1.484,1.484,0,0,1,.5.449,1.4,1.4,0,0,1,.11.831Z" transform="translate(-279.914 -262.061)"/>
  <path id="Tracciato_230" data-name="Tracciato 230" class="cls-4" d="M305.484,662.212c.086.42.183.837.285,1.253l-.011.026a8.483,8.483,0,0,0-2.6-.828,2.883,2.883,0,0,0-2.34.769,2.773,2.773,0,0,0-.053-.4.6.6,0,0,1,.018-.462,1.616,1.616,0,0,1,1.368-.6A11.3,11.3,0,0,1,305.484,662.212Z" transform="translate(-261.107 -547.15)"/>
  <path id="Tracciato_231" data-name="Tracciato 231" class="cls-4" d="M365.935,328.37c.086,0,.055,0,.013.015S365.836,328.4,365.935,328.37Z" transform="translate(-314.361 -274.529)"/>
  <path id="Tracciato_232" data-name="Tracciato 232" class="cls-4" d="M354.013,648.388a15.869,15.869,0,0,0-2.287,1.77,2.4,2.4,0,0,1-.722.528,2.108,2.108,0,0,1-.87.089,29.582,29.582,0,0,1-3.431-.34h0a.44.44,0,0,1-.263-.393c.015-.232.256-.365.468-.466a22.844,22.844,0,0,1,5.951-1.449,2.384,2.384,0,0,0,.6-.183c.228-.091.252.058.365.227a1.406,1.406,0,0,0,.192.216Z" transform="translate(-298.469 -535.694)"/>
  <path id="Tracciato_233" data-name="Tracciato 233" class="cls-10" d="M294.984,313.888c.269.239.576.433.848.665a7.669,7.669,0,0,1,1.644,2.329,1.524,1.524,0,0,1-.839.057,6.014,6.014,0,0,0,.071,2.443,2.266,2.266,0,0,0-.817,1.014,6.778,6.778,0,0,0-.267,1.279q-.395,2.852-.793,5.7a.885.885,0,0,1-.183.513.984.984,0,0,0-.139.137.758.758,0,0,0-.064.393c-.011.133-.1.292-.232.274a.289.289,0,0,1-.163-.106,3.733,3.733,0,0,1-.365-.453,29.391,29.391,0,0,0-2.167,6.559,15.887,15.887,0,0,0-.687,7.257l.161,1.6c.13,1.29.259,2.582.4,3.872a9.744,9.744,0,0,0,.477,2.415c.439,1.171-.047,2.492.139,3.731a6.561,6.561,0,0,1,.144,2.909c-.117.375-.322.716-.475,1.078a8.092,8.092,0,0,0-.448,2.872,12.059,12.059,0,0,0,.1,2.558,10.473,10.473,0,0,1,.44,2.616c-.1,1.259-1.025,2.335-1.138,3.592a5.272,5.272,0,0,0,.824,2.861c.349.656-.137,1.5-.322,2.225a5.635,5.635,0,0,0,.988,4.149.2.2,0,0,0,.1.1c.086.031.163-.053.219-.124a2.812,2.812,0,0,1,2.467-.914,8.257,8.257,0,0,1,2.6.828l1.186-2.64a2.364,2.364,0,0,0,.305-1.412,4.09,4.09,0,0,0-.449-.948,5.536,5.536,0,0,1-.387-2.437l-.022-4.7a10.268,10.268,0,0,0,1.845-3.987,12.789,12.789,0,0,1,.11,6.212,5.64,5.64,0,0,0-.183.946c-.071,1.3.95,2.4,1.222,3.68a.791.791,0,0,1,.022.3,1.129,1.129,0,0,1-.152.347,5.347,5.347,0,0,0-.365,2.976,29.659,29.659,0,0,0,3.875.415,2.177,2.177,0,0,0,.87-.09,2.4,2.4,0,0,0,.722-.53,15.933,15.933,0,0,1,2.717-2.055,6.325,6.325,0,0,0-2.22-2.192c.294-.433.965-.4,1.356-.745a1.279,1.279,0,0,0,.365-.72,4.892,4.892,0,0,0-.216-2.165,25.757,25.757,0,0,0-1.279-4.083,15.688,15.688,0,0,1-.687-1.653c-.479-1.575-.144-3.289-.506-4.9a3.375,3.375,0,0,1-.174-1.56c.2-.791,1.1-1.261,1.294-2.054a81.683,81.683,0,0,0,1.235-8.629,11.085,11.085,0,0,0,.144-1.664c0-.583-.1-1.16-.146-1.741-.164-2.326.579-4.646.389-6.97a8.769,8.769,0,0,0-1.374-4.02c-1.343-2.074-.406-5.008-.265-7.474a5.5,5.5,0,0,1,.574-2.375,3.9,3.9,0,0,0,.338-1.352,1.4,1.4,0,0,0-.1-.853,1.441,1.441,0,0,0-.5-.449c-.426-.278-.066-.479-.3-.928a3.9,3.9,0,0,1-.259-.775,1.63,1.63,0,0,0-.365-.718.691.691,0,0,0-.747-.183c-.174,0-.221-.23-.236-.4a5.693,5.693,0,0,0-.57-1.818.993.993,0,0,0-.44-.565,1.007,1.007,0,0,0-.6,0,1.942,1.942,0,0,0,.272.594,5.159,5.159,0,0,1,.621,1.8c-.183.055.183,0,0,0a1.279,1.279,0,0,1,.239.784h-5.143a.366.366,0,0,1-.183-.033.439.439,0,0,1-.148-.217,3.165,3.165,0,0,0-.475-.709L296.9,313.4a.457.457,0,0,0-.155-.141.42.42,0,0,0-.228,0A4.109,4.109,0,0,0,294.984,313.888Z" transform="translate(-252.844 -262.166)"/>
  <path id="Tracciato_234" data-name="Tracciato 234" class="cls-4" d="M343.16,482.209a1.743,1.743,0,0,1,.89.23.9.9,0,0,1,.442.771,2.044,2.044,0,0,1-.477.914,2.448,2.448,0,0,0-.281.577.232.232,0,0,0-.015.148c.022.069.1.1.161.135a1.372,1.372,0,0,1,.806,1.2c-.016.713-.713,1.29-.674,2.01a4.136,4.136,0,0,0,.077.446,3.405,3.405,0,0,1-.247,1.807c-.221.574-.523,1.113-.76,1.681a11.924,11.924,0,0,0-.731,4.933,9.511,9.511,0,0,1-.731,3.311,47.591,47.591,0,0,0,.164-6.577c-.026-.6-.1-1.158-.073-1.756.044-.948.574-1.811.709-2.741a13.5,13.5,0,0,0,.038-1.61c.026-1.1.323-2.178.344-3.278A4.232,4.232,0,0,1,343.16,482.209Z" transform="translate(-294.53 -400.261)"/>
  <path id="Tracciato_235" data-name="Tracciato 235" class="cls-5" d="M295.573,316.736a5.009,5.009,0,0,0-1.012.669,4.311,4.311,0,0,0-.8,1.1,14,14,0,0,0-.678,1.418,3.159,3.159,0,0,0-.294,1.981,6.821,6.821,0,0,0,.93,1.584,13.484,13.484,0,0,1,.74,1.727c.322.773.762,1.493,1.08,2.267a4.016,4.016,0,0,1,.309,2.45c-.058.238-.444.422-.444.665,0,.4.581.839.967.956a1.446,1.446,0,0,0,1.292-.365,4.751,4.751,0,0,0,1.372-2.116,21.65,21.65,0,0,0,.972-3.985c.168-.99.325-1.982.415-2.98a7.585,7.585,0,0,0-.13-2.689,4.567,4.567,0,0,0-1.248-2.076,3.47,3.47,0,0,0-1.944-1.087A3.2,3.2,0,0,0,295.573,316.736Z" transform="translate(-254.567 -264.623)"/>
  <path id="Tracciato_236" data-name="Tracciato 236" class="cls-9" d="M284.884,402.353a.873.873,0,0,1-.407.608,2.4,2.4,0,0,1-.7.285,2.891,2.891,0,0,1-1.5.148,3.018,3.018,0,0,1-1.056-.6l-5.532-4.235a7.471,7.471,0,0,1-1.219-1.082,7.782,7.782,0,0,1-.577-.82,4.019,4.019,0,0,1-.537-1.067,1.953,1.953,0,0,1-.066-.513.967.967,0,0,1,.117-.47c.133-.223.418-.269.652-.331a6.844,6.844,0,0,1,2.406-.183.327.327,0,0,1,.325.221c.122.225.228.459.338.692a5.006,5.006,0,0,0,.652,1.116,9.419,9.419,0,0,0,.813.784c.585.548,1.063,1.206,1.686,1.71a14.082,14.082,0,0,0,2.421,1.361,4.47,4.47,0,0,1,2.046,1.818A1.065,1.065,0,0,1,284.884,402.353Z" transform="translate(-238.684 -328.215)"/>
  <path id="Tracciato_237" data-name="Tracciato 237" class="cls-4" d="M331.326,257.5a4.524,4.524,0,1,1-.126-1.06A4.524,4.524,0,0,1,331.326,257.5Z" transform="translate(-278.722 -212.914)"/>
  <path id="Tracciato_238" data-name="Tracciato 238" class="cls-9" d="M331.326,256.5a4.524,4.524,0,1,1-.126-1.06A4.524,4.524,0,0,1,331.326,256.5Z" transform="translate(-278.722 -212.096)"/>
  <path id="Tracciato_239" data-name="Tracciato 239" class="cls-4" d="M277.128,395a1.069,1.069,0,0,1-.775.031,4.846,4.846,0,0,0-3.064.046.967.967,0,0,1,.117-.47c.133-.223.418-.269.652-.331a6.843,6.843,0,0,1,2.406-.183.327.327,0,0,1,.325.221C276.913,394.531,277.019,394.765,277.128,395Z" transform="translate(-238.684 -328.215)"/>
  <path id="Tracciato_240" data-name="Tracciato 240" class="cls-5" d="M274.247,344.191a7.13,7.13,0,0,1-.85,2.1,1.553,1.553,0,0,0-.322.563,1.755,1.755,0,0,1-.075.453c-.062.124-.194.206-.247.334-.079.183.024.418-.08.59a.876.876,0,0,1-.174.183,1.279,1.279,0,0,0-.316.937,3.191,3.191,0,0,1-.084,1.007,4.529,4.529,0,0,1,3.289-.159c.305.068.683.119.881-.126s.084-.566.111-.861a3.418,3.418,0,0,1,.462-1.051,12.5,12.5,0,0,0,.386-1.241,20.674,20.674,0,0,1,1.314-2.375,2.282,2.282,0,0,0,.259-.9,2.693,2.693,0,0,0-.312-1.171,16.019,16.019,0,0,0-1.352-2.414c-.232-.342-.632-.974-.992-.428a10.241,10.241,0,0,0-.691,1.484A27.157,27.157,0,0,0,274.247,344.191Z" transform="translate(-237.711 -283.559)"/>
  <path id="Tracciato_241" data-name="Tracciato 241" class="cls-5" d="M327.911,268.484a3.692,3.692,0,0,1-2.956-1.168.453.453,0,0,1-.132-.214.429.429,0,0,1,.084-.3c.219-.338.6-.561.773-.924a2.936,2.936,0,0,0,.132-1.18c.029-.714.311-1.421.334-2.125a2.22,2.22,0,0,0-.04-.537,3.368,3.368,0,0,1-.153-.809c.024-.535.506-.952.586-1.48.1-.672-.453-1.257-1.014-1.644a6.044,6.044,0,0,0-1.381-.714,4.5,4.5,0,0,0-.928-.225,3.618,3.618,0,0,0-1.749.2,2.856,2.856,0,0,0-.65.347.88.88,0,0,0-.29.3.981.981,0,0,0-.077.437,4.656,4.656,0,0,1-.283,2.192c-.183.349-.493.632-.645,1a1.664,1.664,0,0,0-.115.481,4.843,4.843,0,0,0-.027.515,5.374,5.374,0,0,0,.49,2.814,7.338,7.338,0,0,1,.47.787.9.9,0,0,1-.046.875,1,1,0,0,1-.365.274,2.923,2.923,0,0,1-2.337.084,2.962,2.962,0,0,0,.691-3.3,1.95,1.95,0,0,1-.252-.731,1.855,1.855,0,0,1,.183-.669,3.654,3.654,0,0,0,.111-2.141,7.814,7.814,0,0,1-.34-1.3,3.941,3.941,0,0,1,.044-1.012,3.289,3.289,0,0,1,2.253-2.593c.093-.031.183-.06.285-.086a6.078,6.078,0,0,1,1.35-.144,10.25,10.25,0,0,1,3.02.2,4.052,4.052,0,0,1,1.564.8,2.823,2.823,0,0,1,.756,1,3.471,3.471,0,0,1,.214.691c.042.2.073.393.1.59a13.258,13.258,0,0,1,.206,4.241c-.093.548-.256,1.1-.329,1.655A10,10,0,0,0,327.911,268.484Z" transform="translate(-274.89 -214.944)"/>
  <circle id="Ellisse_84" data-name="Ellisse 84" class="cls-11" cx="0.34" cy="0.34" r="0.34" transform="translate(46.19 54.665)"/>
  <circle id="Ellisse_85" data-name="Ellisse 85" class="cls-11" cx="0.34" cy="0.34" r="0.34" transform="translate(51.925 54.505)"/>
  <path id="Tracciato_242" data-name="Tracciato 242" class="cls-4" d="M335.281,233.5l-.731-1.379a1.336,1.336,0,0,1,.152-.153.579.579,0,0,1,.353-.084Z" transform="translate(-288.751 -195.667)"/>
  <path id="Tracciato_243" data-name="Tracciato 243" class="cls-4" d="M343.769,230.466l-.828,1.224-.471-1.343a1.5,1.5,0,0,1,.638-.121A2.119,2.119,0,0,1,343.769,230.466Z" transform="translate(-295.224 -194.316)"/>
  <g id="Raggruppa_7" data-name="Raggruppa 7" class="cls-7" transform="translate(42.7 41.82)">
    <path id="Tracciato_244" data-name="Tracciato 244" d="M320.292,316.027a1,1,0,0,1-.365.274,2.936,2.936,0,0,1-2.077.174,2.849,2.849,0,0,1-.259.276,2.923,2.923,0,0,0,2.337-.084,1,1,0,0,0,.365-.274.787.787,0,0,0,.117-.632A.649.649,0,0,1,320.292,316.027Z" transform="translate(-317.59 -306.042)"/>
    <path id="Tracciato_245" data-name="Tracciato 245" d="M319.947,275.5a3.6,3.6,0,0,1,.1.731,3.641,3.641,0,0,0-.1-1.1,7.811,7.811,0,0,1-.34-1.3,1.092,1.092,0,0,0-.009-.172,4.077,4.077,0,0,0,.009.537A7.811,7.811,0,0,0,319.947,275.5Z" transform="translate(-319.227 -271.634)"/>
    <path id="Tracciato_246" data-name="Tracciato 246" d="M371.618,290.272a7.994,7.994,0,0,0,.1-1.462,7.615,7.615,0,0,1-.1,1.1c-.093.548-.256,1.1-.329,1.655a5.768,5.768,0,0,0-.042.9,5.389,5.389,0,0,1,.042-.539C371.362,291.368,371.524,290.825,371.618,290.272Z" transform="translate(-361.441 -284.016)"/>
    <path id="Tracciato_247" data-name="Tracciato 247" d="M320.2,298.575a3,3,0,0,1-.23-.565.826.826,0,0,0-.022.2,1.95,1.95,0,0,0,.252.731,2.761,2.761,0,0,1,.228.968A2.832,2.832,0,0,0,320.2,298.575Z" transform="translate(-319.518 -291.535)"/>
    <path id="Tracciato_248" data-name="Tracciato 248" d="M363.489,287.181a2.394,2.394,0,0,1,.035.252v-.08a2.22,2.22,0,0,0-.04-.537c-.04-.192-.106-.382-.137-.576a.808.808,0,0,0-.016.132A3.368,3.368,0,0,0,363.489,287.181Z" transform="translate(-354.973 -281.916)"/>
    <path id="Tracciato_249" data-name="Tracciato 249" d="M357.3,317.873a.966.966,0,0,1-.079-.093.378.378,0,0,0-.053.245.453.453,0,0,0,.132.214,3.692,3.692,0,0,0,2.956,1.167c-.031-.121-.062-.239-.091-.365a3.687,3.687,0,0,1-2.865-1.167Z" transform="translate(-349.934 -307.693)"/>
    <path id="Tracciato_250" data-name="Tracciato 250" d="M339.3,265.208a.079.079,0,0,1,0-.02c.1-.672-.453-1.257-1.014-1.644a6.041,6.041,0,0,0-1.381-.714,4.5,4.5,0,0,0-.928-.225,3.617,3.617,0,0,0-1.748.2,2.855,2.855,0,0,0-.65.347.881.881,0,0,0-.29.3.981.981,0,0,0-.077.437c0,.126,0,.252,0,.38v-.015a.981.981,0,0,1,.077-.437.881.881,0,0,1,.29-.3,2.856,2.856,0,0,1,.65-.347,3.618,3.618,0,0,1,1.748-.2,4.5,4.5,0,0,1,.928.225,6.042,6.042,0,0,1,1.381.714A2.182,2.182,0,0,1,339.3,265.208Z" transform="translate(-330.358 -262.572)"/>
    <path id="Tracciato_251" data-name="Tracciato 251" d="M328.167,275.35c-.183.349-.493.632-.645,1a1.664,1.664,0,0,0-.115.48,4.843,4.843,0,0,0-.027.515v.365a4.847,4.847,0,0,1,.027-.516,1.665,1.665,0,0,1,.115-.48,11.484,11.484,0,0,1,.645-1,3.669,3.669,0,0,0,.283-1.805A3.048,3.048,0,0,1,328.167,275.35Z" transform="translate(-325.591 -271.838)"/>
  </g>
  <path id="Tracciato_252" data-name="Tracciato 252" class="cls-4" d="M329.352,255.354a.531.531,0,0,1-.088.1.837.837,0,0,1-.214.128c-.532.23-.51-.521-.787-.778a.944.944,0,0,0-.618-.183q-.8-.04-1.606-.071c-.893-.033-1.785-.049-2.677-.029q-.641.011-1.279.053a3.483,3.483,0,0,0-1.443.331,1.529,1.529,0,0,0-.385.3c-.1.11-.206.248-.345.274a3.289,3.289,0,0,1,2.253-2.593,4.522,4.522,0,0,1,6.212.776,2.823,2.823,0,0,1,.756,1A3.471,3.471,0,0,1,329.352,255.354Z" transform="translate(-276.786 -212.102)"/>
  <path id="Tracciato_253" data-name="Tracciato 253" class="cls-12" d="M328.211,237.411c-.532.23-.51-.521-.787-.778a.945.945,0,0,0-.618-.183,48.7,48.7,0,0,0-5.562-.048,2.624,2.624,0,0,0-1.827.632c-.113.124-.232.285-.4.28-.057-.365-.1-.745-.124-1.12a1.246,1.246,0,0,1,.022-.42c.046-.157.15-.29.2-.444a1.78,1.78,0,0,0,.055-.6,4.33,4.33,0,0,1,2.13-3.683,1.935,1.935,0,0,0,.444-.3,1.335,1.335,0,0,1,.152-.153.579.579,0,0,1,.353-.084h.259a2.359,2.359,0,0,0,.685-.183,1.5,1.5,0,0,1,.638-.121,2.12,2.12,0,0,1,.661.239,1.6,1.6,0,0,0,.309.111c.166.038.338.037.5.069a2.461,2.461,0,0,1,.756.336,3.609,3.609,0,0,1,.76.548,3.363,3.363,0,0,1,.588.957,6.856,6.856,0,0,1,.548,1.52,8.362,8.362,0,0,0,.426,2.262C328.6,236.682,328.794,237.16,328.211,237.411Z" transform="translate(-275.947 -194.3)"/>
  <path id="Tracciato_254" data-name="Tracciato 254" class="cls-4" d="M319.25,258.8s3.787-3.446,9.428-.588C328.678,258.209,322.31,256.76,319.25,258.8Z" transform="translate(-276.247 -216.26)"/>
  <path id="Tracciato_255" data-name="Tracciato 255" class="cls-13" d="M88.083,284.671c-.515-.844-1.29-1.617-1.169-2.574a7.529,7.529,0,0,0,4.062-.784,33.565,33.565,0,0,0,3.722-2.147c.479-.3.956-.6,1.431-.871.753-.431,1.5-.914,2.266-1.336a8.55,8.55,0,0,1,3.446-1.191,6.278,6.278,0,0,1,.671-.016c1.516.029,3.088.437,4.421-.243l.082-.044a11.8,11.8,0,0,0,1.955-1.692,8.732,8.732,0,0,1,1.515-1.052c.985-.548,2.052-.987,3.058-1.5a4.64,4.64,0,0,0,.731-.468l.172-.137.038-.033c.042-.035.084-.069.124-.106l.079-.069.08-.073.062-.058.1-.1.011-.013.159-.157.064-.064.111-.115.066-.066c.111-.115.223-.232.336-.345s.267-.267.4-.393h0l.132-.117.038-.033.106-.088.049-.042.1-.08.051-.04c.051-.038.1-.075.157-.111a1.143,1.143,0,0,1,.153-.09l-.342-.828.983-.406,13.557,32.9-.985.406-7.754-18.819-.055.055a15.567,15.567,0,0,1-6.411,3.815h-.015a15.111,15.111,0,0,0-4,1.452,3.837,3.837,0,0,0-1.032.988c-.267.38-.453.813-.731,1.178-.053.068-.111.133-.17.2a6.352,6.352,0,0,1-1.1.87l-.174.119a35.534,35.534,0,0,1-3.672,2.264,14.489,14.489,0,0,1-2.282.95c-.572.183-1.162.316-1.734.5a6.788,6.788,0,0,0-1.116.449,8.169,8.169,0,0,0-2.415,2.145c-.616.742-1.2,1.527-1.876,2.2-.424.42-1.069.819-1.58.572l-.1-.06c.016-.027.029-.055.044-.084a2.423,2.423,0,0,0-.762-2.569c-.069-.071-.141-.141-.214-.206s-.2-.183-.309-.274a7.44,7.44,0,0,1-1.577-1.582,5.161,5.161,0,0,1-.607-1.719,7.306,7.306,0,0,0-.773-2.479c-.307-.484-.764-.9-1.1-1.361a2.074,2.074,0,0,1-.4-.939,6.1,6.1,0,0,1,.305-1.767,2.205,2.205,0,0,0,.038-.49A2.593,2.593,0,0,0,88.083,284.671Z" transform="translate(-86.349 -224.527)"/>
  <rect id="Rettangolo_51" data-name="Rettangolo 51" class="cls-14" width="1.047" height="34.983" transform="translate(44.357 75.284) rotate(157.6)"/>
  <path id="Tracciato_256" data-name="Tracciato 256" class="cls-15" d="M91.69,296.681a7.164,7.164,0,0,1,.758,2.437,5.134,5.134,0,0,0,.6,1.692,7.352,7.352,0,0,0,1.549,1.555c.1.09.2.183.3.27.071.064.143.133.21.2a2.385,2.385,0,0,1,.749,2.527.7.7,0,0,1-.042.082.831.831,0,0,0,.1.058c.5.245,1.138-.146,1.555-.561.665-.665,1.241-1.436,1.845-2.165a8,8,0,0,1,2.375-2.11,6.578,6.578,0,0,1,1.1-.442c.561-.183,1.142-.312,1.7-.488a14.348,14.348,0,0,0,2.244-.934,35.173,35.173,0,0,0,3.618-2.227l.172-.117a6.276,6.276,0,0,0,1.078-.853c.058-.062.115-.126.168-.194.281-.365.466-.784.731-1.158a3.775,3.775,0,0,1,1.016-.972,14.842,14.842,0,0,1,3.93-1.429h.015a15.336,15.336,0,0,0,6.3-3.751,1.027,1.027,0,0,0,.316-.464,1.071,1.071,0,0,0-.216-.74c-.155-.267-.307-.534-.457-.8a35.9,35.9,0,0,1-1.8-3.787c-.115-.285-.227-.568-.334-.855q-.415-1.1-.756-2.224c-.075-.248-.148-.5-.217-.749-.013-.048-.027-.1-.04-.153-.3-1.219-.709-4.071-1.959-3.217a7.23,7.23,0,0,0-1.032.9c-.243.247-.481.5-.731.745a7.388,7.388,0,0,1-.645.565,4.736,4.736,0,0,1-.731.46c-.992.508-2.041.934-3.007,1.478a8.547,8.547,0,0,0-1.491,1.034,11.573,11.573,0,0,1-1.922,1.664l-.08.044c-1.312.667-2.856.267-4.348.238a6.551,6.551,0,0,0-.658.016,8.327,8.327,0,0,0-3.389,1.171c-.753.417-1.487.888-2.227,1.314-.468.269-.935.559-1.407.857a32.181,32.181,0,0,1-3.654,2.112,7.509,7.509,0,0,1-3.994.769c-.119.941.641,1.7,1.149,2.53a2.512,2.512,0,0,1,.429,1.2,2.121,2.121,0,0,1-.035.481,6.275,6.275,0,0,0-.3,1.739,2.019,2.019,0,0,0,.393.919C90.939,295.8,91.387,296.206,91.69,296.681Z" transform="translate(-88.042 -230.87)"/>
  <path id="Tracciato_257" data-name="Tracciato 257" class="cls-9" d="M306.94,414.71a15.925,15.925,0,0,0,3.223,2.139c1.622.744.548,3.411.548,3.411a2.942,2.942,0,0,1-2.923-1.279A6.817,6.817,0,0,1,306.94,414.71Z" transform="translate(-266.145 -345.094)"/>
  <path id="Tracciato_258" data-name="Tracciato 258" class="cls-16" d="M724.375,544.616s-4.239,5.578-7.756,5.624-5.582,2.35-3.912,3.789,19.867-.822,19.867-.822.172-6.855-1.4-7.856S724.375,544.616,724.375,544.616Z" transform="translate(-597.336 -451.239)"/>
  <path id="Tracciato_259" data-name="Tracciato 259" class="cls-16" d="M1020.655,575.378s.649,4.418-1.356,7.431,3.621,4.175,3.621,4.175,4.087,1.138,4.385-2.9.2-7.125-.183-7.454a8.441,8.441,0,0,1-.7-2.6Z" transform="translate(-848.041 -475.305)"/>
  <path id="Tracciato_260" data-name="Tracciato 260" class="cls-2" d="M677.45,416.316s-.148-14.289,13.992-20.1l3.283-6.247,1.575-3.837a9.336,9.336,0,0,1,6.594-5.565L705.44,380l.787-3.318a9.333,9.333,0,0,1,7.456-7.041,26.111,26.111,0,0,1,4.7-.439,4.042,4.042,0,0,1,3.433,2.01h0s13.4-.148,13.99,7.146c0,0,1.341,6.7,3.276,7.887,0,0,3.274-.744,6.548,4.02l3.572,12.2s9.376,8.781,6.548,16.809c0,0-3.87,5.507-23.516,1.785,0,0-20.986,6.395-32.156-2.375C700.072,418.7,681.469,422.268,677.45,416.316Z" transform="translate(-569.002 -307.899)"/>
  <path id="Tracciato_261" data-name="Tracciato 261" class="cls-17" d="M728.77,537.127s2.978-4.167,2.828-7.146a94.688,94.688,0,0,1,.7-10.232" transform="translate(-610.945 -430.943)"/>
  <path id="Tracciato_262" data-name="Tracciato 262" class="cls-17" d="M788.24,492.388s2.976-5.507,2.678-8.483c0,0,3.126-5.664,5.507-5.211" transform="translate(-659.55 -397.367)"/>
  <path id="Tracciato_263" data-name="Tracciato 263" class="cls-17" d="M877.85,444.257s8.185-2.976,8.633-5.357" transform="translate(-732.788 -364.864)"/>
  <path id="Tracciato_264" data-name="Tracciato 264" class="cls-17" d="M894.14,483.723s8.633-3.87,8.633-4.913h4.314s6.252,8.187,5.509,11.759" transform="translate(-746.102 -397.483)"/>
  <path id="Tracciato_265" data-name="Tracciato 265" class="cls-17" d="M828.352,537.984s-8.335-.6-11.313,1.787-8.335,3.572-8.335,3.572-3.126,6.7-4.317,7.887-3.126,5.359-3.126,5.359" transform="translate(-670.191 -445.791)"/>
  <path id="Tracciato_266" data-name="Tracciato 266" class="cls-17" d="M949.54,581.46a21.769,21.769,0,0,0,2.083,4.911c1.191,1.787,2.976,8.185,2.976,8.185" transform="translate(-791.38 -481.378)"/>
  <path id="Tracciato_267" data-name="Tracciato 267" class="cls-17" d="M1026.11,631.15s1.889,5.256,3.55,5.308" transform="translate(-853.96 -521.989)"/>
  <path id="Tracciato_268" data-name="Tracciato 268" class="cls-17" d="M958.38,507.66s4.907,1.326,6.959,4.54,8.319,6.128,8.319,6.128" transform="translate(-798.605 -421.062)"/>
  <path id="Tracciato_269" data-name="Tracciato 269" class="cls-17" d="M969.9,421s0,6.846,1.935,6.846a54.843,54.843,0,0,1,6.252.744" transform="translate(-808.02 -350.235)"/>
  <path id="Tracciato_270" data-name="Tracciato 270" class="cls-17" d="M904.466,376.5s-.5,11.826-3.026,14.889" transform="translate(-752.068 -313.865)"/>
  <g id="Raggruppa_8" data-name="Raggruppa 8" class="cls-18" transform="translate(117.963 61.159)">
    <path id="Tracciato_271" data-name="Tracciato 271" d="M921.962,401.687l-3.572-12.2c-3.274-4.763-6.548-4.02-6.548-4.02-1.935-1.191-3.274-7.889-3.274-7.889-.6-7.294-13.992-7.144-13.992-7.144h0a4.042,4.042,0,0,0-3.44-2.01c-.632,0-1.279.02-1.926.073q.548.055,1.051.155l1.041,1.787s13.394-.15,13.99,7.144c0,0,1.341,6.7,3.276,7.889,0,0,3.274-.745,6.548,4.02l3.572,12.2s9.376,8.781,6.548,16.809c0,0-1.909,2.717-9.852,3.046,10.708.393,13.126-3.046,13.126-3.046C931.338,410.468,921.962,401.687,921.962,401.687Z" transform="translate(-860.036 -368.42)"/>
    <path id="Tracciato_272" data-name="Tracciato 272" d="M739.065,639.29a69.49,69.49,0,0,1-9.535,1.043,60.8,60.8,0,0,0,10.107-.6C739.444,639.58,739.254,639.438,739.065,639.29Z" transform="translate(-729.53 -589.801)"/>
    <path id="Tracciato_273" data-name="Tracciato 273" d="M894.814,652.33a61.128,61.128,0,0,1-14.054,2.222,59.6,59.6,0,0,0,16.038-1.869C896.151,652.575,895.5,652.452,894.814,652.33Z" transform="translate(-853.13 -600.458)"/>
  </g>
  <path id="Tracciato_274" data-name="Tracciato 274" class="cls-2" d="M306.73,769.493s4.094-.126,5.328-1,6.3-1.928,6.6-.519,6.152,7.007,1.529,7.045-10.738-.72-11.969-1.471S306.73,769.493,306.73,769.493Z" transform="translate(-266.014 -633.248)"/>
  <path id="Tracciato_275" data-name="Tracciato 275" class="cls-19" d="M320.274,784.428c-4.622.038-10.739-.72-11.971-1.462-.937-.572-1.312-2.622-1.436-3.566h-.137s.259,3.3,1.491,4.051,7.348,1.507,11.969,1.471c1.336-.011,1.8-.486,1.77-1.189C321.776,784.156,321.266,784.421,320.274,784.428Z" transform="translate(-266.014 -643.153)"/>
  <path id="Tracciato_276" data-name="Tracciato 276" class="cls-2" d="M768.406,702.005s-4.822-.965-6.106-2.251-7.071-3.534-7.714-1.928-8.677,7.071-3.214,8.039,12.855,1.279,14.463.643S768.406,702.005,768.406,702.005Z" transform="translate(-627.871 -576.028)"/>
  <path id="Tracciato_277" data-name="Tracciato 277" class="cls-19" d="M751.378,726.264c5.465.963,12.855,1.279,14.463.641,1.222-.49,2.074-2.841,2.41-3.935l.161.035s-.965,3.855-2.571,4.5-9,.322-14.463-.643c-1.577-.278-2.028-.932-1.858-1.758C749.655,725.647,750.2,726.061,751.378,726.264Z" transform="translate(-627.876 -597.033)"/>
  <path id="Tracciato_278" data-name="Tracciato 278" class="cls-1" d="M548.016,141.338h-1.147a.8.8,0,0,0,0-1.608h-9.3a.8.8,0,1,0,0,1.608h1.147a.8.8,0,0,0,0,1.606h-1.606a.8.8,0,0,0,0,1.608h9.3a.8.8,0,0,0,0-1.608h1.606a.8.8,0,1,0,0-1.606Z" transform="translate(-453.649 -120.354)"/>
  <path id="Tracciato_279" data-name="Tracciato 279" class="cls-1" d="M745.6,296.152h-1.147a.8.8,0,0,0,0-1.606h-9.305a.8.8,0,1,0,0,1.606h1.147a.8.8,0,0,0,0,1.606h-1.606a.8.8,0,0,0,0,1.608h9.294a.8.8,0,0,0,0-1.608H745.6a.8.8,0,1,0,0-1.606Z" transform="translate(-615.122 -246.884)"/>
  <path id="Tracciato_280" data-name="Tracciato 280" class="cls-1" d="M452.79,267.512h-1.147a.8.8,0,1,0,0-1.606h-9.3a.8.8,0,1,0,0,1.606h1.147a.8.8,0,1,0,0,1.606h-1.608a.8.8,0,1,0,0,1.608h9.3a.8.8,0,1,0,0-1.608h1.606a.8.8,0,1,0,0-1.606Z" transform="translate(-375.818 -223.476)"/>
</svg>
